<?xml version="1.0" standalone="no"?>
<!DOCTYPE svg PUBLIC "-//W3C//DTD SVG 20010904//EN"
 "http://www.w3.org/TR/2001/REC-SVG-20010904/DTD/svg10.dtd">
<svg version="1.0" xmlns="http://www.w3.org/2000/svg"
 width="512.000000pt" height="512.000000pt" viewBox="0 0 512.000000 512.000000"
 preserveAspectRatio="xMidYMid meet">
<metadata>
Created by potrace 1.14, written by Peter Selinger 2001-2017
</metadata>
<g transform="translate(0.000000,512.000000) scale(0.100000,-0.100000)"
fill="#000000" stroke="none">
<path d="M2630 4725 c-145 -48 -315 -277 -357 -480 l-17 -81 -75 13 c-121 19
-350 16 -487 -7 -268 -46 -562 -180 -809 -369 -85 -64 -256 -233 -327 -320
-329 -408 -494 -917 -475 -1461 9 -244 50 -455 132 -676 307 -819 1009 -1272
2071 -1335 502 -29 996 67 1419 276 265 131 456 268 657 472 129 130 198 214
282 342 339 515 426 1132 240 1706 -34 102 -127 300 -186 390 -160 249 -387
445 -671 580 -64 31 -117 58 -117 60 0 2 30 14 68 25 141 44 350 61 482 40 30
-5 84 -12 120 -16 61 -6 68 -5 97 20 38 32 51 82 33 126 -28 67 -154 158 -273
195 -203 64 -404 35 -701 -102 -177 -81 -378 -163 -401 -163 -11 0 12 16 50
34 84 41 160 113 191 181 52 110 14 294 -78 382 -87 83 -200 70 -368 -43 -133
-89 -222 -194 -346 -406 -21 -37 -42 -68 -46 -68 -4 0 -17 15 -30 33 -19 27
-23 44 -23 107 1 65 6 85 36 151 20 42 59 112 88 156 68 107 76 131 57 176 -8
20 -26 43 -40 52 -36 24 -139 29 -196 10z m124 -122 c-70 -107 -120 -195 -147
-261 -27 -66 -31 -90 -32 -167 0 -102 16 -144 78 -204 46 -43 109 -53 148 -23
14 11 61 80 105 152 114 190 215 294 361 371 66 35 119 38 156 9 55 -43 86
-204 53 -269 -27 -51 -98 -106 -182 -140 -93 -37 -122 -63 -131 -114 -5 -32
-1 -41 30 -72 32 -32 39 -35 97 -35 80 0 162 28 408 139 220 100 294 127 400
147 142 27 268 12 380 -45 59 -30 155 -118 117 -108 -131 37 -377 41 -532 8
-57 -12 -135 -33 -175 -47 -77 -27 -288 -133 -288 -143 0 -4 32 -13 71 -20
221 -41 500 -184 684 -352 193 -176 327 -383 419 -648 110 -316 126 -703 42
-1032 -187 -735 -832 -1343 -1645 -1549 -477 -121 -999 -118 -1500 9 -600 153
-1022 479 -1274 986 -144 291 -208 566 -209 895 0 400 94 758 286 1084 346
587 1012 965 1599 906 94 -9 215 -32 289 -56 14 -4 16 4 11 74 -7 98 7 162 58
267 80 164 191 265 293 265 l48 0 -18 -27z"/>
<path d="M1842 3408 c-46 -22 -127 -50 -180 -64 -95 -23 -122 -39 -122 -74 0
-27 30 -60 56 -60 21 0 24 -5 24 -35 0 -41 35 -71 73 -61 58 14 201 122 270
204 41 50 47 82 17 112 -27 27 -41 25 -138 -22z"/>
<path d="M2463 3409 c-23 -8 -43 -38 -43 -63 0 -23 94 -135 158 -189 80 -67
137 -100 162 -92 29 9 50 33 50 58 0 15 11 27 32 37 65 31 53 96 -22 119 -79
24 -183 68 -235 98 -66 39 -76 42 -102 32z"/>
<path d="M2030 2724 c-45 -8 -144 -47 -180 -69 -138 -89 -130 -194 19 -268
104 -52 201 -71 330 -64 151 8 255 47 287 108 50 98 -40 213 -215 272 -54 19
-190 30 -241 21z"/>
</g>
</svg>
